<?xml version="1.0" encoding="UTF-8"?>
<svg id="Object" xmlns="http://www.w3.org/2000/svg" xmlns:xlink="http://www.w3.org/1999/xlink" viewBox="0 0 428.79 231.61">
  <defs>
    <style>
      .cls-1 {
        fill: url(#linear-gradient);
      }

      .cls-2 {
        fill: url(#linear-gradient-3);
      }

      .cls-3 {
        fill: url(#linear-gradient-4);
      }

      .cls-4 {
        fill: url(#linear-gradient-2);
      }

      .cls-5 {
        fill: url(#linear-gradient-5);
      }
    </style>
    <linearGradient id="linear-gradient" x1="204.34" y1="-368.44" x2="289.99" y2="-368.44" gradientTransform="translate(231.06 597.67) rotate(-128.83) scale(1 -1)" gradientUnits="userSpaceOnUse">
      <stop offset="0" stop-color="#009fe3"/>
      <stop offset="1" stop-color="#33669a"/>
    </linearGradient>
    <linearGradient id="linear-gradient-2" x1="230.88" y1="-402.33" x2="489.54" y2="-402.33" gradientTransform="translate(231.03 597.67) rotate(-128.83) scale(1 -1)" gradientUnits="userSpaceOnUse">
      <stop offset="0" stop-color="#009fe3"/>
      <stop offset="1" stop-color="#33669a"/>
    </linearGradient>
    <linearGradient id="linear-gradient-3" x1="481.91" y1="-209.94" x2="567.57" y2="-209.94" gradientTransform="translate(231.03 597.67) rotate(-128.83) scale(1 -1)" gradientUnits="userSpaceOnUse">
      <stop offset="0" stop-color="#027cac"/>
      <stop offset="1" stop-color="#47bdb1"/>
    </linearGradient>
    <linearGradient id="linear-gradient-4" x1="563.19" y1="164.12" x2="379.62" y2="392.2" gradientTransform="translate(-257.02 394) scale(1 -1)" gradientUnits="userSpaceOnUse">
      <stop offset="0" stop-color="#039cdf"/>
      <stop offset=".25" stop-color="#2c6da3"/>
      <stop offset="1" stop-color="#47bdb1"/>
    </linearGradient>
    <linearGradient id="linear-gradient-5" x1="282.07" y1="-176.01" x2="540.74" y2="-176.01" gradientTransform="translate(231.03 597.67) rotate(-128.83) scale(1 -1)" gradientUnits="userSpaceOnUse">
      <stop offset="0" stop-color="#027cac"/>
      <stop offset="1" stop-color="#47bdb1"/>
    </linearGradient>
  </defs>
  <g>
    <ellipse class="cls-1" cx="363.11" cy="174.11" rx="44.5" ry="41.7"/>
    <path class="cls-4" d="M181.39,15.72c-.86,9.47,6.64,17.82,16.75,18.62,5.31,.44,16.41,.4,35.6,.28,29.9-.16,79.97-.36,95.26,2.77,14.95,3.05,30.84,8.27,45.49,25.33,14.56,16.98,19.92,38.13,16.66,58.12-.26,1.44,.17,2.93,1.16,4.09l20.05,23.36c2.7,3.13,8.01,2.33,9.47-1.44,13.36-34.68,7.71-74.9-18.72-105.69-21.97-25.57-46.95-33.4-66.26-37.37C319.02,.14,279.52,.02,233.52,.22c-13.96,.08-28.4,.12-32.34-.16-10.11-.8-18.98,6.22-19.88,15.69l.09-.04Z"/>
  </g>
  <g>
    <ellipse class="cls-2" cx="65.67" cy="57.4" rx="44.5" ry="41.7"/>
    <g>
      <path class="cls-3" d="M318.42,218.58c-36.07,1.73-72.56-12.2-96.89-40.54-14.05-16.34-22.62-35.64-25.02-56.23-.21-.88-.3-1.81-.34-2.77-.69-16.1-6.73-31.27-17.56-43.87-12.34-14.33-29.17-23.28-47.12-26.49-1.29-.24-2.48-.88-3.3-1.81l-21.8-25.37c-2.83-3.25-.51-8.19,3.94-8.43,36.07-1.73,72.56,12.2,96.89,40.54,14.05,16.34,22.62,35.64,25.06,56.27,.17,.88,.3,1.81,.34,2.73,.69,16.1,6.73,31.27,17.56,43.87,12.34,14.37,29.17,23.32,47.12,26.53,1.28,.24,2.48,.88,3.3,1.81l21.8,25.37c2.78,3.25,.51,8.19-3.94,8.39h-.04Z"/>
      <path class="cls-5" d="M247.4,215.89c.86-9.47-6.64-17.82-16.75-18.62-5.31-.44-16.41-.4-35.6-.28-29.9,.16-79.97,.36-95.26-2.77-14.95-3.05-30.84-8.27-45.49-25.33-14.65-17.06-19.92-38.13-16.66-58.12,.26-1.44-.17-2.93-1.16-4.09l-20.05-23.36c-2.7-3.13-8.01-2.33-9.47,1.44C-6.4,119.44-.74,159.65,25.69,190.44c21.97,25.57,46.95,33.4,66.26,37.37,17.82,3.65,57.31,3.77,103.32,3.57,13.96-.08,28.4-.12,32.34,.16,10.11,.8,18.98-6.22,19.88-15.69l-.09,.04Z"/>
    </g>
  </g>
</svg>