<?xml version="1.0" encoding="utf-8"?>
<!-- Generator: Adobe Illustrator 27.0.0, SVG Export Plug-In . SVG Version: 6.00 Build 0)  -->
<svg version="1.1" id="Layer_1" xmlns="http://www.w3.org/2000/svg" xmlns:xlink="http://www.w3.org/1999/xlink" x="0px" y="0px"
	 viewBox="0 0 512 512" style="enable-background:new 0 0 512 512;" xml:space="preserve">
<style type="text/css">
	.st0{opacity:0.4;}
	.st1{opacity:0.1;enable-background:new    ;}
	.st2{fill:#FFD0AE;}
	.st3{fill:#1E753B;}
	.st4{fill:#58595B;}
	.st5{fill:#F9F9F9;}
	.st6{opacity:0.2;enable-background:new    ;}
	.st7{fill:#414042;}
	.st8{fill:#FFFFFF;}
</style>
<circle class="st0" cx="256" cy="256" r="256"/>
<path class="st1" d="M328.5,97h-72.2v414.2l0,0c133.1,0,242.5-101.6,254.8-231.6L328.5,97z"/>
<path class="st2" d="M350,360.1c-74.4,0-57.8-36.5-62.9-73.1h-61.7c-5.1,36.6,11.6,73.1-62.9,73.1c-47.6,0-63.8,20.8-63.8,66.7v30.9
	c43.4,34,98.1,54.2,157.5,54.2s114.1-20.2,157.5-54.2v-30.9C413.8,380.9,397.6,360.1,350,360.1L350,360.1z"/>
<path class="st1" d="M288.4,308.2c-0.2-6.3-0.4-12.7-1.3-19.2h-61.7c-0.9,6.4-1.1,12.9-1.3,19.1c8.9,5.7,19.5,9.2,32.2,9.2
	C268.9,317.3,279.5,313.9,288.4,308.2L288.4,308.2z"/>
<path class="st3" d="M350,360.1c-9.7,0-17.9-0.6-24.7-1.8l-69,7.5l-69-7.5c-6.9,1.2-15,1.8-24.7,1.8c-47.6,0-63.8,20.8-63.8,66.7
	v30.9c43.4,34,98.1,54.2,157.5,54.2s114.1-20.2,157.5-54.2v-30.9C413.8,380.9,397.6,360.1,350,360.1L350,360.1z"/>
<path class="st4" d="M287.9,366.2h-63.2l21.9,28.8l-5.9,116.4c5,0.3,10,0.5,15.1,0.5c5.4,0,10.8-0.2,16.1-0.5L266,395L287.9,366.2z"
	/>
<path class="st5" d="M350,360.1c-9.7,0-17.9-0.6-24.7-1.8l-68.9,137.3l-69.1-137.3c-6.9,1.2-15,1.8-24.7,1.8
	c-47.6,0-63.8,20.8-63.8,66.7v30.9c43.4,34,98.1,54.2,157.5,54.2s114.1-20.2,157.5-54.2v-30.9C413.8,380.9,397.6,360.1,350,360.1
	L350,360.1z"/>
<path class="st6" d="M246.6,395H266c0,0-4.9,1.8-9.7,1.8S246.6,395,246.6,395L246.6,395z"/>
<path class="st3" d="M221.8,332.1H217L187,358l32.2,45.6l37.1-37.7L221.8,332.1z"/>
<path class="st3" d="M290.9,332.1h4.6l30,25.9l-32.2,45.6l-37.1-37.7L290.9,332.1z"/>
<g>
	<ellipse class="st2" cx="181.5" cy="223.3" rx="13.8" ry="16.3"/>
	<ellipse class="st2" cx="331.2" cy="223.3" rx="13.8" ry="16.3"/>
	<path class="st2" d="M270.1,106.5h-27.4c-36.1,0-65.3,42.3-65.3,78.4c0,0,2.1,126.8,79.1,126.8s79.1-126.8,79.1-126.8
		C335.4,148.9,306.2,106.5,270.1,106.5L270.1,106.5z"/>
</g>
<path class="st1" d="M330.7,187.9c-3.1-16.2-25.3-23.2-33.2-58.6c-17.3,50.7-103.5,52.3-111,58.6c-5,4.2-5.3,13.5-4.9,19.3
	c0.3-4.8,1.6-9.9,4.9-12.7c7.6-6.3,93.7-7.9,111-58.6c7.9,35.5,30.1,42.4,33.2,58.6c0.7,3.8,1.1,7,1.2,9.9
	C332.2,200.4,332.1,194.9,330.7,187.9L330.7,187.9z"/>
<path class="st7" d="M338.1,209.2c11.6-17.5,25.1-125.4-40.5-122.6c-58-49.7-162.4,16.6-122.9,122.6l7.5,4.7c0,0-3.2-17.9,4.4-24.2
	s93.7-7.9,111-58.6c7.9,35.5,30.1,42.4,33.2,58.6s-0.1,24.2-0.1,24.2L338.1,209.2z"/>
<path class="st1" d="M219.2,407.5l37.1-38.7l37.1,38.7l35.2-48.7l0,0c-1.1-0.1-2.2-0.3-3.2-0.5l-31.9,45.2l-37.1-37.7l-37.1,37.7
	l-31.9-45.2c-1,0.2-2.1,0.3-3.2,0.5l0,0L219.2,407.5z"/>
<path class="st8" d="M208.7,339.2L162.5,360l39.2,35l-19.3,12.5l73.9,88.1L208.7,339.2z"/>
<path class="st8" d="M304,339.2l46.2,20.8L311,395l19.3,12.5l-73.9,88.1L304,339.2z"/>
<path class="st1" d="M350.2,360.1l-39.3,35l2.6,1.7l40.4-36.6C352.6,360.1,351.4,360.1,350.2,360.1z"/>
<path class="st1" d="M162.2,360.1l39.3,35l-2.6,1.7l-40.4-36.6C159.7,360.1,160.9,360.1,162.2,360.1L162.2,360.1z"/>
<path class="st1" d="M328.1,410.1l-71.7,85.5l-71.7-85.5l-2.2,1.4l73.9,88.3l73.9-88.3L328.1,410.1z"/>
</svg>
