<svg xmlns="http://www.w3.org/2000/svg" viewBox="0 0 576 512">
  <style>
    .st0 {
      fill: currentColor; /* Inherits color from parent */
      stroke: #000000; /* Default stroke color */
      stroke-miterlimit: 10; /* Stroke miter limit */
    }
    .st1 {
      stroke: #FFFFFF; /* Inverse stroke color */
      stroke-miterlimit: 10; /* Stroke miter limit */
    }
  </style>
  <path class="st0" d="M64,0C28.7,0,0,28.7,0,64v352c0,35.3,28.7,64,64,64h16l16,32h64l16-32h224l16,32h64l16-32h16
    c35.3,0,64-28.7,64-64V64c0-35.3-28.7-64-64-64H64z M224,320c44.2,0,80-35.8,80-80s-35.8-80-80-80s-80,35.8-80,80S179.8,320,224,320
    z M224,80c88.4,0,160,71.6,160,160s-71.6,160-160,160S64,328.4,64,240S135.6,80,224,80z M480,221.3V336c0,8.8-7.2,16-16,16
    s-16-7.2-16-16V221.3c-18.6-6.6-32-24.4-32-45.3c0-26.5,21.5-48,48-48s48,21.5,48,48C512,196.9,498.6,214.7,480,221.3z"/>
  <path class="st1" d="M12,2C6.5,2,2,6.5,2,12s4.5,10,10,10s10-4.5,10-10S17.5,2,12,2z M17,12c0,2.8-2.2,5-5,5s-5-2.2-5-5s2.2-5,5-5
    S17,9.2,17,12z"/>
</svg>
